<svg width="28" height="26" viewBox="0 0 28 26" fill="none" xmlns="http://www.w3.org/2000/svg">
<path fill-rule="evenodd" clip-rule="evenodd" d="M7.30158 11.1886H0.501843V13.5508C0.501843 14.1348 0.97848 14.6118 1.56205 14.6118H4.00791L5.46686 15.3488L7.30164 14.6118V11.1886H7.30158Z" fill="#FFEF60"/>
<path fill-rule="evenodd" clip-rule="evenodd" d="M6.24143 7.76086H1.5621C0.978533 7.76086 0.501895 8.23787 0.501895 8.82191V10.5771H7.30164V8.82191C7.30164 8.23787 6.825 7.76086 6.24143 7.76086Z" fill="#FFEF60"/>
<path fill-rule="evenodd" clip-rule="evenodd" d="M7.30164 10.0481H0.501895V11.7161H7.30164V10.0481Z" fill="#FF814E"/>
<path fill-rule="evenodd" clip-rule="evenodd" d="M1.92351 10.048H1.05273H0.504264V8.82184C0.504264 8.42278 0.727334 8.07421 1.05273 7.89378C1.20549 7.80971 1.37964 7.76074 1.56452 7.76074H2.98376C2.4002 7.76074 1.92356 8.23775 1.92356 8.82179V10.048H1.92351Z" fill="#FFCD1B"/>
<path fill-rule="evenodd" clip-rule="evenodd" d="M1.91846 11.7161H1.04768H0.499216V11.1887V10.5771V10.0481H1.04768H1.91846V10.5771V11.1887V11.7161Z" fill="#FF5A17"/>
<path fill-rule="evenodd" clip-rule="evenodd" d="M1.92357 11.7161V13.5508C1.92357 14.1348 2.4002 14.6118 2.98376 14.6118H1.56454C1.37971 14.6118 1.20556 14.5644 1.05275 14.4804C0.727356 14.2984 0.50429 13.9499 0.50429 13.5508V11.7161H1.05275H1.92357Z" fill="#FFCD1B"/>
<path fill-rule="evenodd" clip-rule="evenodd" d="M7.30118 14.612H4.00746V16.1271C4.00746 16.491 4.30534 16.7876 4.6674 16.7876H15.3914C15.3914 15.8351 15.3914 15.3504 14.6627 15.3504L13.2114 15.3489C12.2978 15.3474 11.6989 15.1134 11.3644 14.6119H7.30118V14.612Z" fill="#635448"/>
<path fill-rule="evenodd" clip-rule="evenodd" d="M14.0969 16.7876H4.66645C4.11343 17.7508 3.66886 18.9082 4.05233 21.1221C4.69397 18.9388 11.2111 19.8103 11.8802 22.3299H19.071C19.343 21.7137 19.5996 21.1052 19.8242 20.4906H17.797C13.6967 18.9433 15.015 19.6329 14.0969 16.7876V16.7876Z" fill="#FF8C5E"/>
<path fill-rule="evenodd" clip-rule="evenodd" d="M14.6776 10.8691C14.5371 11.6091 14.3461 12.3385 14.1323 12.9592L12.0593 13.7714L9.74782 12.9592C9.8288 8.58494 11.4634 6.48728 12.8536 5.80844C13.3547 5.42691 13.868 5.2832 13.868 5.2832C13.868 5.2832 14.5432 6.36345 14.5784 6.36345C14.8381 6.98113 14.9359 7.78688 14.9191 8.65682L14.6776 10.8691Z" fill="#FFFAFA"/>
<path fill-rule="evenodd" clip-rule="evenodd" d="M9.74796 12.9591H14.1324C15.1423 13.0692 16.3843 13.8383 16.3843 16.2203V18.717L15.3893 19.3097L14.0958 18.717V16.7875C14.0958 15.835 14.0958 15.3503 13.3671 15.3503L11.9158 15.3488C11.0023 15.3473 10.4034 15.1133 10.0689 14.6118C9.81064 14.2251 9.71134 13.6792 9.74796 12.9591V12.9591Z" fill="#FF8086"/>
<path fill-rule="evenodd" clip-rule="evenodd" d="M9.74823 12.9592C9.82921 8.58496 11.4638 6.4873 12.854 5.80847C13.0603 5.9537 13.2895 6.07297 13.5415 6.16165C12.3102 7.09274 11.0758 9.1736 11.0056 12.9592H9.74823Z" fill="#FFC8C8"/>
<path fill-rule="evenodd" clip-rule="evenodd" d="M9.74895 12.9591H11.0062C10.9695 13.6792 11.0688 14.2251 11.327 14.6119C11.5378 14.9284 11.8556 15.1959 12.291 15.3488H11.9167C11.0031 15.3473 10.4043 15.1134 10.0697 14.6119C9.81162 14.2251 9.71233 13.6792 9.74895 12.9591V12.9591Z" fill="#F76672"/>
<path fill-rule="evenodd" clip-rule="evenodd" d="M11.8771 22.3299C11.8771 20.0687 10.0851 18.2676 7.87454 18.2676C6.07644 18.2676 4.55487 19.4601 4.04919 21.1221C3.9453 21.463 3.88419 21.8254 3.87352 22.2015C3.86892 22.3483 3.96978 22.3299 4.10726 22.3299C6.69668 22.3299 9.28766 22.3284 11.8771 22.3299V22.3299Z" fill="#FF8C5D"/>
<path fill-rule="evenodd" clip-rule="evenodd" d="M10.8745 22.3298H4.78206C4.86911 23.9719 6.19973 25.2776 7.82829 25.2776C9.45684 25.2776 10.7875 23.9719 10.8745 22.3298V22.3298Z" fill="#2A333E"/>
<path fill-rule="evenodd" clip-rule="evenodd" d="M26.3452 21.6801L21.1037 22.8864C21.4367 24.3343 22.8804 25.2394 24.3271 24.9061C25.7753 24.5728 26.6782 23.128 26.3452 21.6801V21.6801Z" fill="#2A333E"/>
<path fill-rule="evenodd" clip-rule="evenodd" d="M26.7374 20.2108C25.9965 19.1329 24.7102 18.5076 23.3658 18.6421C20.9948 19.1436 20.2233 20.5609 20.069 22.3284C20.0721 22.5684 20.0981 22.81 20.15 23.0515C20.1653 23.1188 20.2096 23.0913 20.283 23.0745L21.1034 22.8864L26.3449 21.6801L26.7375 21.5899L27.2859 21.463C27.1805 21.0012 26.991 20.5793 26.7374 20.2108Z" fill="#FFFAFA"/>
<path fill-rule="evenodd" clip-rule="evenodd" d="M23.3672 18.6359L21.2498 11.3094L20.2965 10.8828L19.2302 11.3094C20.6311 15.1929 20.24 17.9036 19.2943 20.4905C19.0682 21.1052 18.8116 21.7137 18.5412 22.3298H20.0643L23.3672 18.6359Z" fill="#FF814E"/>
<path fill-rule="evenodd" clip-rule="evenodd" d="M16.8142 3.09456L14.3301 2.56555C14.0781 2.58847 13.357 3.19395 13.357 3.57313L13.8855 6.26094C14.1055 6.3267 14.3393 6.36337 14.5806 6.36337C15.9036 6.36337 16.9761 5.28857 16.9761 3.96449C16.9761 3.6572 16.9196 3.36361 16.8142 3.09456V3.09456Z" fill="#FFECE4"/>
<path fill-rule="evenodd" clip-rule="evenodd" d="M17.6125 3.09458C17.6125 1.38525 16.259 0.00158691 14.5877 0.00158691C12.9164 0.00158691 11.5629 1.38525 11.5629 3.09458C11.5629 4.2229 12.0212 5.22588 12.8523 5.8084C13.1486 6.01787 13.4939 6.1723 13.8819 6.26097V3.5731C13.8819 3.19393 14.0744 3.11749 14.3265 3.09453H16.8105H17.6125V3.09458Z" fill="#FF8C5D"/>
<path fill-rule="evenodd" clip-rule="evenodd" d="M16.1726 0.458711C15.7128 0.168209 15.1704 0.00158691 14.5899 0.00158691C12.9186 0.00158691 11.5651 1.38525 11.5651 3.09458C11.5651 4.2229 12.0234 5.22588 12.8545 5.8084C13.0653 5.95671 13.2991 6.0775 13.5557 6.16618C12.9416 5.5439 12.6086 4.65104 12.6086 3.66638C12.6086 1.88062 14.0247 0.432711 15.7709 0.432711C15.9068 0.432711 16.0412 0.440349 16.1726 0.458711Z" fill="#FF5A17"/>
<path fill-rule="evenodd" clip-rule="evenodd" d="M16.387 18.717H14.0984V20.1588C14.0984 20.4677 14.2665 20.4906 14.514 20.4906H17.7985C17.8643 19.0442 16.9889 18.717 16.387 18.717Z" fill="#635448"/>
<path fill-rule="evenodd" clip-rule="evenodd" d="M19.2984 20.4906C20.244 17.9037 20.6351 15.1929 19.2342 11.3094H20.0195C20.0225 11.3094 20.0256 11.3094 20.0286 11.3094H20.3112C21.7121 15.1929 21.3226 17.9036 20.3754 20.4906C20.1508 21.1052 19.8942 21.7137 19.6223 22.3299H19.0723H18.5452C18.8156 21.7137 19.0723 21.1052 19.2984 20.4906Z" fill="#FF5A17"/>
<path fill-rule="evenodd" clip-rule="evenodd" d="M20.0704 22.3284L23.3671 18.6421C23.7078 18.6085 24.0455 18.6222 24.3708 18.6819L21.2024 22.2244C21.2055 22.4307 21.2253 22.6402 21.265 22.8497L21.1046 22.8863L20.2842 23.0744C20.2109 23.0912 20.1666 23.1188 20.1513 23.0515C20.0994 22.81 20.0735 22.5684 20.0704 22.3284V22.3284Z" fill="#FFC8C8"/>
<path fill-rule="evenodd" clip-rule="evenodd" d="M4.66675 16.7876H14.0972V17.6178H6.34871C5.7178 17.6178 5.41835 17.8899 5.17237 18.4419C4.96002 18.9205 4.95542 19.0764 4.85921 19.6543C4.49714 20.0748 4.21909 20.5732 4.05258 21.1221C3.66916 18.9082 4.11373 17.7508 4.66675 16.7876V16.7876Z" fill="#FF5A17"/>
<path fill-rule="evenodd" clip-rule="evenodd" d="M4.85837 19.6542C5.59166 18.8025 6.67175 18.2675 7.87708 18.2675C8.17956 18.2675 8.47289 18.3011 8.75549 18.3638C6.95127 18.772 5.68939 20.3651 5.63441 22.2014C5.63137 22.3023 5.6772 22.3252 5.75049 22.3298H4.78042H4.10975C3.97227 22.3298 3.87141 22.3482 3.87601 22.2014C3.88668 21.8253 3.94779 21.4629 4.05168 21.1219C4.05472 21.1112 4.0578 21.1021 4.06084 21.0929C4.06084 21.0929 4.06084 21.0929 4.06084 21.0914C4.22892 20.5547 4.50237 20.067 4.85837 19.6542Z" fill="#FF5A17"/>
<path fill-rule="evenodd" clip-rule="evenodd" d="M21.2648 22.8496L26.3459 21.6801C26.4024 21.9201 26.4223 22.1617 26.4131 22.3971L22.3801 23.3252L22.2212 23.3619C22.3709 24.0193 22.7513 24.5651 23.257 24.9336C22.2258 24.7516 21.3534 23.9719 21.1044 22.8864L21.2648 22.8496Z" fill="#635448"/>
<path fill-rule="evenodd" clip-rule="evenodd" d="M5.75104 22.3299H10.8734C10.8566 22.6509 10.7909 22.9598 10.6855 23.2487H7.11681H6.14674C6.18493 23.9673 6.4599 24.6202 6.89379 25.1293C5.71593 24.7425 4.84976 23.6432 4.78102 22.3298H5.75104V22.3299Z" fill="#635448"/>
<path fill-rule="evenodd" clip-rule="evenodd" d="M4.00647 16.1271V14.6119H6.0765V16.1271C6.0765 16.491 6.37438 16.7875 6.73645 16.7875H4.66642C4.30435 16.7876 4.00647 16.491 4.00647 16.1271Z" fill="#2A333E"/>
<path fill-rule="evenodd" clip-rule="evenodd" d="M16.9612 3.70761H14.9202C14.6681 3.73052 14.4756 3.80852 14.4756 4.1877V6.36027C14.2709 6.35112 14.0723 6.31748 13.8829 6.26087V3.57306C13.8829 3.19388 14.0753 3.11745 14.3274 3.09448H16.8115C16.8863 3.28716 16.9383 3.49354 16.9612 3.70761V3.70761Z" fill="#FFDDCE"/>
<path fill-rule="evenodd" clip-rule="evenodd" d="M21.6954 9.0023L18.8371 9.94716C18.6966 10.0725 18.8554 11.3507 18.9502 11.3094H21.254H22.2729V9.20565C22.2729 8.79132 22.0575 8.88303 21.6954 9.0023V9.0023Z" fill="#FFE07D"/>
<path fill-rule="evenodd" clip-rule="evenodd" d="M17.5071 11.3095H17.747H18.9523C19.7284 11.3095 19.7513 10.0222 18.8393 9.94725L17.5071 9.84021L17.1497 10.597L17.5071 11.3095Z" fill="#FFECE4"/>
<path fill-rule="evenodd" clip-rule="evenodd" d="M14.9206 8.6568L14.4424 8.24551C13.2447 7.2135 11.7307 8.95494 13.3318 9.99459L14.6792 10.8691L15.3575 11.3095H17.5039V9.84016L16.1703 9.73161L14.9206 8.6568Z" fill="#FF8086"/>
<path fill-rule="evenodd" clip-rule="evenodd" d="M17.5067 11.3094V10.597H17.7924H17.9467H18.1881H19.3934C19.4392 10.597 19.482 10.5939 19.5233 10.5847C19.5676 10.9394 19.3674 11.3094 18.9519 11.3094H17.7465H17.5067Z" fill="#FFDDCE"/>
<path fill-rule="evenodd" clip-rule="evenodd" d="M13.3318 9.99451C12.3632 9.36459 12.5343 8.47938 13.0858 8.10632C13.0415 8.48853 13.2233 8.92735 13.7732 9.28361L14.8228 9.96396L15.1191 10.1582L15.7975 10.597H17.5039V11.3094H15.3575L14.6792 10.8691L13.3318 9.99451Z" fill="#F76672"/>
<path fill-rule="evenodd" clip-rule="evenodd" d="M18.837 9.94717L19.9874 9.56799C20.3723 9.98081 20.5587 10.785 20.3112 11.3094H19.2342H18.9501C19.3656 11.3094 19.5657 10.9394 19.5215 10.5847C19.4817 10.2774 19.2602 9.98232 18.837 9.94717V9.94717Z" fill="#FFC269"/>
</svg>
