<svg width="16" height="17" viewBox="0 0 16 17" fill="none" xmlns="http://www.w3.org/2000/svg">
<path fill-rule="evenodd" clip-rule="evenodd" d="M11.5986 3.725H11.7693C14.0127 3.725 15.8333 5.6 15.8333 7.9V12.5C15.8333 14.8 14.0127 16.6667 11.7693 16.6667H4.064C1.82067 16.6667 0 14.8 0 12.5V7.9C0 5.6 1.82067 3.725 4.064 3.725H4.23468C4.25094 2.725 4.63296 1.79167 5.32384 1.09167C6.02284 0.383333 6.91692 0.025 7.92479 0C9.94054 0 11.5743 1.66667 11.5986 3.725ZM6.17652 1.98333C5.72135 2.45 5.46938 3.06667 5.45312 3.725H10.3787C10.3543 2.35833 9.26515 1.25 7.92404 1.25C7.29818 1.25 6.64794 1.50833 6.17652 1.98333ZM11.0041 6.93346C11.3455 6.93346 11.6137 6.65013 11.6137 6.30846V5.3418C11.6137 5.00013 11.3455 4.7168 11.0041 4.7168C10.6709 4.7168 10.3945 5.00013 10.3945 5.3418V6.30846C10.3945 6.65013 10.6709 6.93346 11.0041 6.93346ZM5.36373 6.30846C5.36373 6.65013 5.09551 6.93346 4.75413 6.93346C4.42088 6.93346 4.14453 6.65013 4.14453 6.30846V5.3418C4.14453 5.00013 4.42088 4.7168 4.75413 4.7168C5.09551 4.7168 5.36373 5.00013 5.36373 5.3418V6.30846Z" fill="white"/>
</svg>
