<svg width="20" height="16" viewBox="0 0 20 16" fill="none" xmlns="http://www.w3.org/2000/svg">
<path fill-rule="evenodd" clip-rule="evenodd" d="M0 0.666666C0 0.298477 0.298477 0 0.666666 0H2.66667C2.97537 0 3.2437 0.211941 3.3152 0.512253L3.82816 2.66667H19.3333C19.5365 2.66667 19.7286 2.75931 19.855 2.9183C19.9815 3.07729 20.0286 3.28528 19.9829 3.48324L17.9829 12.1499C17.9131 12.4524 17.6438 12.6667 17.3333 12.6667H6.20911L6.52657 14H17.3333C17.7015 14 18 14.2985 18 14.6667C18 15.0349 17.7015 15.3333 17.3333 15.3333H6C5.69129 15.3333 5.42296 15.1214 5.35146 14.8211L4.76134 12.3426C4.72625 12.284 4.69975 12.2193 4.68374 12.1499L3.68426 7.81883L2.14009 1.33333H0.666666C0.298477 1.33333 0 1.03486 0 0.666666ZM5.89165 11.3333H16.803L18.4953 4H4.17137L4.9824 7.51449L5.89165 11.3333Z" fill="white"/>
</svg>
